<?xml version="1.0" standalone="no"?>
<!DOCTYPE svg PUBLIC "-//W3C//DTD SVG 20010904//EN"
 "http://www.w3.org/TR/2001/REC-SVG-20010904/DTD/svg10.dtd">
<svg version="1.0" xmlns="http://www.w3.org/2000/svg"
 width="800.000000pt" height="800.000000pt" viewBox="0 0 800.000000 800.000000"
 preserveAspectRatio="xMidYMid meet">
<metadata>
Created by potrace 1.11, written by Peter Selinger 2001-2013
</metadata>
<g transform="translate(0.000000,800.000000) scale(0.100000,-0.100000)"
fill="#000000" stroke="none">
<path d="M3738 7984 c-2 -1 -39 -5 -83 -9 -105 -7 -151 -13 -265 -31 -128 -20
-148 -23 -200 -35 -25 -6 -56 -13 -70 -15 -149 -27 -502 -142 -705 -229 -1093
-469 -1931 -1419 -2259 -2561 -15 -50 -28 -100 -30 -110 -2 -11 -9 -39 -16
-64 -7 -25 -14 -54 -16 -65 -2 -11 -8 -42 -14 -70 -5 -27 -12 -66 -15 -85 -3
-19 -8 -42 -10 -50 -10 -38 -33 -219 -43 -335 -9 -120 -8 -569 2 -670 5 -44 9
-94 11 -110 1 -17 6 -50 10 -75 3 -25 8 -56 10 -70 67 -452 228 -923 454
-1330 81 -146 227 -375 278 -435 5 -5 29 -37 53 -70 25 -33 47 -62 50 -65 3
-3 30 -34 60 -70 463 -549 1079 -971 1760 -1205 172 -59 458 -133 575 -150 11
-2 47 -8 80 -13 33 -6 83 -14 110 -17 28 -4 62 -8 76 -10 197 -27 693 -27 900
0 81 10 246 35 269 40 14 3 42 8 62 11 45 7 276 64 374 93 72 20 303 102 359
126 112 48 175 77 290 134 72 35 132 66 135 70 3 3 25 17 50 30 204 109 522
341 720 525 128 120 295 295 367 387 15 19 35 43 43 52 56 62 310 424 310 443
0 3 8 18 19 32 36 53 211 390 211 409 0 4 6 20 14 34 67 130 215 602 250 799
17 93 26 147 31 190 3 19 8 51 11 70 4 19 8 51 9 70 2 19 7 73 12 120 19 202
6 699 -21 855 -3 17 -8 50 -11 75 -10 84 -64 334 -99 462 -326 1184 -1199
2166 -2337 2631 -286 117 -642 215 -914 252 -22 3 -53 7 -70 10 -71 10 -124
16 -180 21 -66 6 -602 13 -607 8z"/>
</g>
</svg>
